<?xml version="1.0" encoding="UTF-8" standalone="no"?>
<!-- Created with Inkscape (http://www.inkscape.org/) -->

<svg
   width="155.97728mm"
   height="156.1479mm"
   viewBox="0 0 155.97728 156.1479"
   version="1.1"
   id="svg8"
   inkscape:version="1.3.2 (091e20e, 2023-11-25, custom)"
   sodipodi:docname="simoc-logo_corrected.svg"
   xmlns:inkscape="http://www.inkscape.org/namespaces/inkscape"
   xmlns:sodipodi="http://sodipodi.sourceforge.net/DTD/sodipodi-0.dtd"
   xmlns="http://www.w3.org/2000/svg"
   xmlns:svg="http://www.w3.org/2000/svg"
   xmlns:rdf="http://www.w3.org/1999/02/22-rdf-syntax-ns#"
   xmlns:cc="http://creativecommons.org/ns#"
   xmlns:dc="http://purl.org/dc/elements/1.1/">
  <defs
     id="defs2">
    <clipPath
       id="clipPath850"
       clipPathUnits="userSpaceOnUse">
      <path
         inkscape:connector-curvature="0"
         id="path848"
         d="M 0,600 H 600 V 0 H 0 Z" />
    </clipPath>
    <clipPath
       id="clipPath862"
       clipPathUnits="userSpaceOnUse">
      <path
         inkscape:connector-curvature="0"
         id="path860"
         d="M 0,600 H 600 V 0 H 0 Z" />
    </clipPath>
  </defs>
  <sodipodi:namedview
     id="base"
     pagecolor="#ffffff"
     bordercolor="#666666"
     borderopacity="1.0"
     inkscape:pageopacity="0.0"
     inkscape:pageshadow="2"
     inkscape:zoom="1.4"
     inkscape:cx="194.28571"
     inkscape:cy="282.5"
     inkscape:document-units="mm"
     inkscape:current-layer="layer1"
     showgrid="false"
     inkscape:window-width="3840"
     inkscape:window-height="1537"
     inkscape:window-x="-8"
     inkscape:window-y="-8"
     inkscape:window-maximized="1"
     inkscape:showpageshadow="0"
     inkscape:pagecheckerboard="true"
     inkscape:deskcolor="#d1d1d1" />
  <metadata
     id="metadata5">
    <rdf:RDF>
      <cc:Work
         rdf:about="">
        <dc:format>image/svg+xml</dc:format>
        <dc:type
           rdf:resource="http://purl.org/dc/dcmitype/StillImage" />
      </cc:Work>
    </rdf:RDF>
  </metadata>
  <g
     inkscape:label="Layer 1"
     inkscape:groupmode="layer"
     id="layer1"
     transform="translate(-36.16017,-66.840556)">
    <g
       transform="matrix(0.35277777,0,0,-0.35277777,8.7732233,251.56777)"
       inkscape:label="SIMOC_SAM_logo-REV-202302-v6-FINAL"
       id="g842">
      <g
         id="g856">
        <g
           clip-path="url(#clipPath862)"
           id="g858">
          <path
             id="path870"
             style="fill:#3f92d1;fill-opacity:1;fill-rule:nonzero;stroke:none"
             d="M 295.39011 523.60691 C 83.492827 526.92876 -4.8395192 240.88795 172.76657 118.05759 C 172.76657 118.05759 166.32607 140.95831 163.6069 175.91452 C 159.92199 178.04489 155.65897 186.09751 153.89499 188.94284 C 151.41299 192.94584 145.76657 200.61417 145.76657 205.45017 C 143.33457 211.92214 141.60283 218.82596 142.2568 225.70896 C 142.3848 227.05493 142.88663 228.6962 144.22263 228.90817 C 144.8606 229.00917 145.49026 228.72682 146.07126 228.44382 C 152.03374 225.53908 157.60309 221.8342 162.60202 217.47507 C 162.90879 227.90541 163.7625 238.89855 165.12155 250.17185 C 161.40295 255.88945 161.14963 266.87685 160.38132 272.63523 C 158.55032 286.35619 156.71962 300.07684 154.88962 313.7988 C 154.70762 315.1578 154.60107 316.74503 155.60007 317.68503 C 157.39105 319.37103 160.14111 317.19326 161.57809 315.19626 C 165.82526 309.29599 170.07197 303.39666 174.31931 297.49656 C 179.01865 314.54751 185.51583 331.82886 193.99802 348.89206 C 194.07682 349.34081 194.19258 349.86109 194.33054 350.50339 C 195.48054 355.85239 196.6057 361.24366 197.8447 366.57566 C 199.3547 373.07565 201.71483 379.64498 206.42282 384.37498 C 207.40982 385.36697 208.69075 386.32717 210.07175 386.09617 C 211.51792 385.85324 213.17143 384.53069 214.14548 383.02878 C 248.49297 432.175 304.23293 476.41245 393.35447 503.1489 C 358.45506 516.75362 325.66115 523.13236 295.39011 523.60691 z " />
          <g
             transform="translate(193.6671,106.6358)"
             id="g872">
            <path
               inkscape:connector-curvature="0"
               id="path874"
               style="fill:#8b3620;fill-opacity:1;fill-rule:nonzero;stroke:none"
               d="m 0,0 c 0,0 40.159,86.364 142.12,123.802 101.961,37.437 178.684,24.188 178.684,24.188 0,0 -25.583,-121.669 -130.156,-159.372 C 86.076,-49.085 0,0 0,0" />
          </g>
          <g
             transform="translate(348.0079,311.0515)"
             id="g876">
            <path
               inkscape:connector-curvature="0"
               id="path878"
               style="fill:#a6995e;fill-opacity:1;fill-rule:nonzero;stroke:none"
               d="m 0,0 c 0.179,-0.026 0.358,-0.051 0.536,-0.077 v -13.466 c -2.066,0.536 -4.246,1.101 -6.75,1.751 C -4.019,-7.627 -2.01,-3.813 0,0 m -0.28,1.503 c -1.597,-3.049 -2.992,-5.715 -4.388,-8.38 -0.188,0.059 -0.377,0.119 -0.566,0.178 1.498,2.651 -0.191,6.99 4.954,8.202 M 1.807,8.16 C 1.236,5.831 1.615,2.875 -2.301,2.142 -0.739,4.431 0.534,6.296 1.807,8.16 m 3.009,3.871 c 0.168,0.427 0.605,0.908 1.024,1.048 2.116,0.706 4.268,1.309 5.863,1.785 C 8.977,11.833 5.972,8.493 2.967,5.152 2.786,5.281 2.605,5.409 2.424,5.538 3.213,7.706 3.971,9.885 4.816,12.031 m 12.117,8.187 c -1.327,-3.76 -4.235,-4.184 -7.227,-4.484 2.273,1.411 4.547,2.821 7.227,4.484 m 10.907,1.609 c -3.593,-1.394 -7.187,-2.787 -10.915,-4.233 1.975,5.872 6.783,4.201 10.915,4.233 m 3.893,0.484 c -0.451,-3.104 -0.852,-5.864 -1.282,-8.817 -4.645,1.012 -8.872,1.932 -13.759,2.997 5.261,2.036 9.945,3.848 15.041,5.82 m 14.512,-5.489 c -0.025,-0.144 -0.051,-0.289 -0.077,-0.434 -4.799,-0.93 -9.598,-1.86 -14.741,-2.856 0.433,2.984 0.833,5.745 1.288,8.877 4.763,-1.966 9.147,-3.776 13.53,-5.587 m -9.609,5.514 c 3.208,-0.173 6.476,-0.059 9.587,-0.704 0.859,-0.178 1.249,-2.615 1.854,-4.015 -0.177,-0.102 -0.355,-0.205 -0.532,-0.307 -3.654,1.5 -7.308,2.999 -10.961,4.499 0.017,0.175 0.034,0.351 0.052,0.527 M 48.513,20.96 c 3.116,-2.018 6.233,-4.037 9.35,-6.055 -0.048,-0.137 -0.096,-0.275 -0.144,-0.413 -2.526,0.644 -5.208,0.963 -7.514,2.068 -1.158,0.556 -1.631,2.54 -2.415,3.878 0.241,0.174 0.482,0.348 0.723,0.522 M 61.304,11.904 C 61.722,9.427 61.989,6.925 62.306,4.431 L 61.756,4.12 c -3.418,3.864 -6.836,7.728 -9.59,10.841 1.802,-0.467 4.857,-1.228 7.889,-2.072 0.486,-0.136 1.182,-0.589 1.249,-0.985 M 47.668,2.076 c 0.437,4.467 0.841,8.604 1.316,13.463 4.187,-4.688 7.947,-8.896 11.384,-12.743 -3.43,-0.195 -7.871,-0.447 -12.7,-0.72 M 46.775,2.39 C 41.741,5.9 37.094,9.141 31.995,12.697 37.6,13.779 42.661,14.756 48.045,15.795 47.624,11.354 47.223,7.125 46.775,2.39 M 30.39,-1.785 C 30.665,2.81 30.926,7.186 31.219,12.1 36.215,8.624 40.876,5.381 46.023,1.801 40.531,0.541 35.609,-0.588 30.39,-1.785 m -0.955,0.004 C 24.54,-0.527 19.867,0.67 14.75,1.98 20.008,5.389 24.898,8.557 30.298,12.057 29.995,7.194 29.725,2.866 29.435,-1.781 m -15.255,4.5 c 0.453,4.639 0.854,8.748 1.277,13.081 4.679,-1.009 9.108,-1.964 14.194,-3.062 C 24.314,9.282 19.486,6.155 14.18,2.719 M 13.202,2.297 C 9.566,2.582 6.058,2.858 3.382,3.068 6.714,6.804 10.273,10.794 13.833,14.785 14.015,14.69 14.198,14.595 14.381,14.5 13.998,10.539 13.615,6.579 13.202,2.297 M 2.348,-12.358 c -0.182,0.038 -0.364,0.077 -0.546,0.115 V 2.236 C 5.132,1.981 8.682,1.709 12.723,1.398 9.08,-3.432 5.714,-7.895 2.348,-12.358 M 62.883,10.51 c 2.148,-3.081 4.12,-5.908 6.204,-8.897 -6.039,0.823 -6.893,2.034 -6.204,8.897 m 7.12,-11.413 c 0.368,-2.962 0.632,-5.936 0.931,-8.907 -0.184,-0.033 -0.367,-0.066 -0.55,-0.099 -2.033,3.689 -4.067,7.379 -6.383,11.58 2.101,-0.501 3.632,-0.786 5.096,-1.268 0.412,-0.136 0.847,-0.825 0.906,-1.306 m 2.112,-11.018 c -0.263,2.451 -0.515,4.805 -0.82,7.641 2.629,-4.844 2.784,-6.312 0.82,-7.641 M -6.079,-18.61 c -0.006,0.083 -0.006,0.167 -0.015,0.249 0.016,-0.076 0.032,-0.153 0.048,-0.23 0.29,0.171 0.582,0.339 0.874,0.507 -0.355,1.731 -0.716,3.487 -1.092,5.32 2.572,-0.668 4.698,-1.22 7.139,-1.855 -0.025,-0.08 -0.05,-0.157 -0.075,-0.237 0.572,0.288 1.146,0.573 1.725,0.851 -0.082,0.014 -0.161,0.028 -0.243,0.042 3.766,4.985 7.312,9.682 11.115,14.716 0.866,-3.235 1.7,-6.351 2.534,-9.467 0.298,0.091 0.598,0.176 0.897,0.264 -0.851,3.167 -1.699,6.32 -2.582,9.603 5.133,-1.32 9.77,-2.512 14.81,-3.809 -0.916,-1.223 -1.819,-2.428 -2.718,-3.63 0.434,0.07 0.868,0.144 1.305,0.205 0.722,0.964 1.446,1.93 2.183,2.915 0.575,-0.837 1.141,-1.661 1.708,-2.485 0.354,0.029 0.707,0.063 1.062,0.087 -0.65,0.946 -1.301,1.893 -1.966,2.862 5.274,1.217 10.31,2.379 15.797,3.645 -0.812,-2.291 -1.606,-4.53 -2.399,-6.769 0.317,-0.036 0.633,-0.065 0.95,-0.106 0.765,2.148 1.535,4.311 2.327,6.533 2.151,-2.836 4.226,-5.573 6.312,-8.322 0.491,-0.14 0.983,-0.272 1.475,-0.425 -2.335,3.081 -4.641,6.123 -7.051,9.302 4.976,0.283 9.496,0.539 14.412,0.818 -0.689,-4.065 -1.339,-7.9 -2.022,-11.926 0.304,-0.101 0.607,-0.196 0.91,-0.294 0.615,3.678 1.231,7.364 1.9,11.359 2.749,-4.972 5.201,-9.406 7.774,-14.06 -0.026,-0.005 -0.051,-0.009 -0.077,-0.014 0.674,-0.164 1.348,-0.326 2.02,-0.479 0.222,0.41 0.506,0.759 0.881,1.009 -0.022,-0.403 -0.042,-0.79 -0.064,-1.188 0.308,-0.068 0.616,-0.136 0.924,-0.202 -0.018,6.53 -2.94,12.2 -6.127,17.888 -4.125,7.36 -10.317,12.285 -17.458,16.362 -2.294,1.309 -4.441,2.76 -7.167,2.996 -4.297,0.371 -8.409,2.449 -12.856,1.436 C 25.443,23.574 19.741,23.075 14.412,19.97 7.326,15.842 1.502,10.855 -2.379,3.649 -3.221,2.086 -4.205,0.547 -4.732,-1.126 c -1.883,-5.976 -2.742,-12.086 -2.727,-18.312 0.458,0.278 0.916,0.555 1.38,0.828" />
          </g>
          <g
             transform="translate(289.5071,213.7234)"
             id="g880">
            <path
               inkscape:connector-curvature="0"
               id="path882"
               style="fill:#b57846;fill-opacity:1;fill-rule:nonzero;stroke:none"
               d="m 0,0 c 0,0 41.547,26.286 114.92,39.313 72.633,12.896 110.875,6.578 110.875,6.578 0,0 3.608,19.904 4.215,30.403 0.607,10.499 -0.058,15.321 -0.058,15.321 0,0 -59.472,-22.686 -113.873,-3.257 C 61.678,107.786 9.378,41.375 9.378,41.375 Z" />
          </g>
          <g
             transform="translate(452.7641,303.2533)"
             id="g884">
            <path
               inkscape:connector-curvature="0"
               id="path886"
               style="fill:#a6995e;fill-opacity:1;fill-rule:nonzero;stroke:none"
               d="m 0,0 0.943,10.805 c 0,0 -0.41,77.324 0,88.079 0.41,10.755 1.535,17.72 2.452,22.593 0.918,4.872 2.653,15.958 4.833,15.958 2.18,0 5.282,-15.135 5.282,-15.135 0,0 2.866,-14.979 2.935,-23.722 0.069,-8.742 0,-47.297 0.419,-53.119 0.419,-5.821 6.333,-33.521 6.624,-38.202 0.29,-4.681 0.587,-10.114 0.587,-10.114 l -5.534,0.727 1.845,-7.349 -1.51,0.054 -1.844,7.295 -6.037,-0.582 0.412,-6.402 -0.92,-0.296 -0.498,6.844 -0.503,-9.314 H 8.648 L 8.48,-2.566 1.186,-2.13 0,-9.479 h -1.855 l 2.034,7.641 z" />
          </g>
          <g
             transform="translate(432.079,478.2269)"
             id="g984">
            <path
               inkscape:connector-curvature="0"
               id="path986"
               style="fill:#3ab194;fill-opacity:1;fill-rule:evenodd;stroke:none"
               d="m 0,0 c -2.43,-1.257 -7.711,-3.344 -11.753,-4.746 -10.907,-3.832 -15.774,-6.272 -22.922,-11.624 -7.133,-5.33 -11.267,-10.053 -16.48,-19.322 -1.736,-3.021 -4.088,-6.841 -5.309,-8.499 -1.225,-1.657 -2.234,-3.056 -2.251,-3.118 -0.226,-0.722 -12.182,-8.28 -21.374,-13.757 -10.213,-6.184 -11.789,-7.014 -11.911,-5.714 -0.164,2.134 4.061,11.32 8.134,17.373 5.139,7.692 7.771,12.982 11.249,22.514 3.606,9.853 4.254,12.982 2.58,13.672 -3.911,1.669 -19.812,-17.758 -22.713,-28.095 -1.204,-4.088 -2.486,-16.289 -2.21,-20.983 0.085,-1.633 -0.139,-4.197 -0.562,-5.79 -0.706,-2.688 -1.145,-2.985 -11.009,-9.516 -5.708,-3.655 -14.801,-10.187 -20.24,-14.449 -7.48,-5.835 -9.661,-7.34 -9.011,-5.903 0.439,1.069 1.905,4.583 3.203,7.862 1.357,3.264 4.05,9.509 6.014,13.917 4.531,9.844 5.312,12.836 5.777,22.497 0.307,6.442 0.859,9.504 3.191,17.793 1.752,6.193 2.667,10.228 2.314,10.436 -0.309,0.118 -0.907,0.42 -1.259,0.627 -0.352,0.208 -2.321,-1.826 -4.392,-4.495 -13.169,-16.953 -14.629,-19.761 -17.288,-29.975 -1.943,-7.687 -2.208,-12.184 -1.204,-25.67 0.58,-7.292 0.575,-10.61 -0.124,-13.728 -0.301,-1.348 -0.599,-2.696 -0.895,-4.044 -2.563,-2.252 -5.119,-4.519 -7.67,-6.802 -15.039,-13.336 -23.264,-21.781 -29.977,-29.753 -0.848,-1.006 -1.694,-2.015 -2.539,-3.025 0.572,2.926 1.156,5.851 1.75,8.775 1.664,7.675 1.808,9.426 1.286,13.446 -0.326,2.895 -0.155,7.26 0.388,11.316 0.844,5.87 1.367,7.405 4.252,12.994 5.811,11.321 8.28,26.208 6.496,39.446 -0.351,2.807 -0.726,3.534 -1.936,3.715 -1.337,0.225 -1.636,-0.125 -2.449,-3.155 -0.577,-2.356 -2.056,-5.011 -4.494,-8.263 -14.841,-19.889 -16.06,-22.729 -16.919,-33.076 -1.206,-14.732 0.325,-26.427 4.901,-38.585 3.749,-9.861 3.627,-10.405 -4.266,-21.622 -3.566,-5.118 -10.062,-15.508 -14.287,-23.169 -4.243,-7.708 -7.868,-14.035 -8.13,-13.987 -0.263,0.046 -0.458,1.787 -0.409,3.843 0.067,2.197 -0.858,7.222 -2.186,12.506 -2.693,10.34 -2.699,15.093 -0.189,23.724 1.268,4.322 1.792,7.272 2.036,12.641 0.437,9.026 -0.141,12.918 -3.444,22.466 -3.09,9.263 -4.014,14.368 -3.29,18.183 0.287,1.514 0.42,3.3 0.346,4.004 -0.264,1.899 -2.592,2.248 -3.29,0.459 -0.316,-0.904 -1.91,-4.805 -3.421,-8.811 -8.024,-20.924 -10.301,-30.771 -10.07,-40.627 0.352,-14.375 3.28,-26.001 9.714,-39.208 2.558,-5.102 5.29,-11.823 6.161,-14.897 0.866,-3.07 1.76,-5.989 2.043,-6.461 0.342,-0.553 0.01,-1.774 -0.668,-3.153 -0.667,-1.237 -2.36,-5.358 -3.669,-9.266 -1.373,-3.819 -4.114,-11.33 -6.139,-16.704 -1.968,-5.369 -4.464,-12.451 -5.414,-15.856 -2.604,-8.541 -2.356,-8.159 -3.621,-6.891 -0.562,0.625 -2.397,4.635 -4.052,9.01 -3.008,8.118 -4.32,14.435 -5.845,31.895 -0.413,5.288 -1.301,9.576 -2.98,14.681 -4.557,13.638 -17.27,38.136 -20.042,37.612 -2.022,-0.425 -2.207,-1.843 -0.72,-8.367 2.694,-11.852 3.539,-17.837 3.975,-27.613 0.565,-13.138 1.601,-18.044 6.558,-31.459 4.618,-12.355 7.728,-17.322 14.405,-23.788 2.163,-1.948 4.982,-4.093 6.417,-4.671 2.927,-1.304 2.899,-1.504 1.159,-8.399 -0.663,-2.659 -1.845,-9.738 -2.64,-15.665 -0.744,-5.984 -1.875,-14.431 -2.603,-18.746 -0.42,-2.6 -0.83,-5.2 -1.231,-7.8 -0.814,1.867 -1.626,3.74 -2.434,5.617 -1.28,3.137 -3.423,8.934 -4.651,12.88 -3.392,10.82 -5.544,15.272 -9.942,19.969 -16.481,17.817 -20.032,21.619 -21.191,20.98 -1.482,-0.851 -1.392,-2.857 0.494,-10.175 2.911,-10.874 4.048,-14.17 7.702,-22.139 5.057,-11.019 10.289,-16.885 21.794,-24.481 1.907,-1.233 3.866,-3.433 5.302,-5.797 0.782,-1.264 1.564,-2.526 2.348,-3.784 -0.207,-7.32 -0.342,-14.626 -0.406,-21.916 -0.108,-15.621 0.27,-23.085 1.127,-26.724 1.749,-0.874 3.498,-1.749 5.247,-2.624 0.13,1.497 -0.06,11.876 -0.159,24.21 -0.101,7.938 -0.117,15.899 -0.049,23.88 0.962,0.864 1.925,1.727 2.888,2.587 4.071,3.471 7.35,5.202 16.492,8.456 9.817,3.52 12.554,4.942 16.063,8.581 3.106,3.196 8.162,10.21 11.235,15.593 3.278,5.632 1.716,7.364 -3.831,4.317 -1.653,-0.925 -5.327,-2.42 -8.14,-3.327 -2.818,-0.908 -6.695,-2.345 -8.542,-3.144 -5.228,-2.271 -15.796,-12.368 -21.339,-20.537 -4.009,-5.851 -4.658,-6.583 -4.315,-4.541 0.209,1.292 1.075,8.525 2.053,16.025 1.988,16.18 4.193,27.478 5.128,29.123 1.228,2.106 7.724,6.145 12.771,7.937 2.69,1.018 8.404,2.308 12.759,2.98 13.58,1.933 20.998,5.968 31.973,16.523 7.752,7.591 11.25,11.449 11.134,12.801 -0.161,2.083 -2.652,2.184 -6.267,0.164 -5.392,-2.98 -10.518,-4.622 -19.592,-6.024 -9.191,-1.474 -15.465,-3.51 -22.96,-7.657 -5.375,-2.985 -8.986,-6.146 -13.745,-12.139 -1.729,-2.168 -3.28,-3.738 -3.325,-3.384 -0.11,0.36 1.859,6.639 4.393,13.939 2.526,7.32 5.961,16.937 7.451,21.349 1.553,4.482 2.93,8.135 3.002,8.195 0.066,-0.011 2.362,0.966 5.013,2.158 5.564,2.404 9.601,2.999 18.827,3.016 10.279,0.05 26.53,1.37 30.211,2.426 4.017,1.198 10.351,4.708 21.362,11.543 9.365,5.754 10.489,6.755 9.895,8.722 -0.575,1.625 -1.772,1.733 -10.644,0.982 -3.381,-0.284 -10.555,-0.456 -15.911,-0.383 -14.557,0.184 -24.841,-1.91 -37.202,-7.76 -3.239,-1.512 -7.733,-4.084 -9.979,-5.664 -2.257,-1.647 -4.926,-3.446 -5.796,-4.075 -0.575,-0.373 -1.15,-0.747 -1.725,-1.121 0.43,0.869 0.861,1.737 1.294,2.604 7.027,14.1 18.039,33.248 21.339,37.971 3.933,5.602 4.331,5.935 8.956,7.743 2.697,1.028 7.939,2.175 11.733,2.65 7.666,0.788 11.384,0.191 25.993,-4.17 12.234,-3.677 18.176,-3.397 28.875,0.869 6.672,2.723 16.517,8.583 16.832,10.131 0.476,2.372 -1.032,3.071 -4.878,2.299 -6.394,-1.347 -9.906,-0.99 -22.325,2.702 -16.461,4.833 -19.628,5.443 -26.674,4.741 -8.568,-0.904 -11.522,-2.051 -21.101,-8.523 -4.678,-3.139 -8.478,-5.537 -8.433,-5.264 0.267,1.979 20.862,24.022 35.236,36.55 7.586,6.695 9.581,7.507 16.953,7.033 4.623,-0.266 8.272,-1.59 15.222,-5.652 2.081,-1.194 7.323,-3.325 11.669,-4.722 6.907,-2.235 8.446,-2.517 12.321,-2.388 4.701,0.162 10.004,1.937 17.151,5.539 2.367,1.157 5.209,2.426 6.245,2.777 1.301,0.406 1.965,1.058 2.055,1.942 0.121,1.269 -0.278,1.447 -7.465,3.762 -8.786,2.791 -12.43,3.16 -20.379,1.738 -5.002,-0.891 -5.577,-0.866 -14.146,1.159 -9.811,2.312 -11.396,2.314 -20.276,0.373 -3.072,-0.715 -5.749,-1.137 -5.845,-0.97 -0.298,0.523 15.239,12.504 28.109,21.007 10.77,7.198 11.684,7.534 13.675,6.895 4.584,-1.5 22.421,-4.561 25.74,-4.455 6.08,0.131 9.377,0.695 13.154,2.075 4.9,1.81 15.677,7.147 15.907,7.902 0.432,1.484 -1.719,2.634 -7.117,3.875 -9.656,2.198 -16.661,1.553 -27.976,-2.959 -2.504,-1.044 -5.818,-1.965 -7.363,-2.127 -1.547,-0.16 -4.524,-0.528 -6.58,-0.869 -2.059,-0.341 -3.796,-0.452 -3.882,-0.286 -0.087,0.166 2.249,1.796 5.156,3.558 8.894,5.283 17.103,10.419 21.804,13.754 2.41,1.783 8.638,5.411 13.836,8.122 17.16,8.928 23.691,13.904 33.979,26.178 1.517,1.776 6.21,6.686 10.523,10.892 9.034,8.802 9.205,8.945 9.234,10.289 C 5.886,2.292 4.479,2.21 0,0" />
          </g>
        </g>
      </g>
    </g>
  </g>
</svg>
