<svg id="Layer_1" data-name="Layer 1" xmlns="http://www.w3.org/2000/svg" viewBox="0 0 434.42 442.89"><defs><style>.cls-1{fill:#00cf8b;}.cls-2{fill:#0092cc;}.cls-3{fill:#963f04;}.cls-4{fill:#eee;}.cls-5{fill:#ccc;}.cls-6{fill:#ce5d00;}.cls-7{fill:#a5a5a5;}</style></defs><title>simoc-logo</title><path class="cls-1" d="M106.3,410.27S44.84,120,323.95,35.71c6.16,21.2-.6,97.55-5.89,107.89-9.9,3.15-94.21,67-113.58,153.68-2,1.22-14.22,9.54-14.22,9.54-1-31.89,27.61-109.65,27.61-109.65S185.6,228.45,170.1,320.85c-10,8.62-21.09,23.64-21.09,23.64s5.86-130.27,60.68-208.85C127.56,196,130.52,370.69,130.52,370.69Z" transform="translate(-2.73 0.27)"/><path class="cls-2" d="M318.45,20.22C39.26-88.62-105.11,264.93,97.86,405.31,97.86,405.31,14.93,111.27,318.45,20.22Z" transform="translate(-2.73 0.27)"/><path class="cls-3" d="M116,417s40.16-86.36,142.12-123.8,178-24.16,178-24.16-24.9,121.65-129.47,159.35S116,417,116,417Z" transform="translate(-2.73 0.27)"/><path class="cls-4" d="M328,217.55c39.45,14.09,79.11,6.76,97.92,1.67l-4.57-14.14H385.62c-8.6-17.66-25.93-32.76-46-32.76s-37.37,15.1-46,32.76H263.11l-13.68,32.22C269.68,221.67,298.51,207,328,217.55Z" transform="translate(-2.73 0.27)"/><path class="cls-5" d="M264.3,227.19c0-.08,0-0.17,0-0.25l0,0.23,0.87-.51-1.09-5.32,7.14,1.85-0.08.24,1.72-.85-0.24,0,11.11-14.72,2.53,9.47,0.9-.26-2.58-9.6,14.81,3.81-2.72,3.63,1.31-.21,2.18-2.91,1.71,2.49,1.06-.09-2-2.86,15.8-3.65-2.4,6.77,0.95,0.11,2.33-6.53L324,216.3c0.49,0.14,1,.27,1.48.42l-7.05-9.3,14.41-.82-2,11.93,0.91,0.29,1.9-11.36,7.77,14.06h-0.08l2,0.48a2.75,2.75,0,0,1,.88-1l-0.06,1.19,0.92,0.2c0-6.53-2.94-12.2-6.13-17.89-4.12-7.36-10.32-12.28-17.46-16.36-2.29-1.31-4.44-2.76-7.17-3-4.3-.37-8.41-2.45-12.86-1.44-5.65,1.29-11.35,1.79-16.68,4.89-7.09,4.13-12.91,9.12-16.79,16.32a28.59,28.59,0,0,0-2.35,4.77A60.06,60.06,0,0,0,262.92,228Zm78.19-6.69-0.82-7.64C344.3,217.71,344.46,219.17,342.49,220.5Zm-2.11-11c0.37,3,.63,5.94.93,8.91l-0.55.1-6.38-11.58c2.1,0.5,3.63.79,5.1,1.27A1.82,1.82,0,0,1,340.38,209.48Zm-7.12-11.41,6.2,8.9C333.42,206.14,332.57,204.93,333.26,198.07Zm-60.53,22.87-0.55-.11V206.34l10.92,0.84Zm10.85-14.65-9.82-.77,10.45-11.72,0.55,0.28Zm1-.42,1.28-13.08L300,195.84Zm15.25,4.5-14.68-3.76,15.55-10.08Zm1,0,0.83-13.88,14.8,10.3Zm16.38-4.17-14.78-10.31,16-3.1Zm0.89,0.31L319.36,193l11.38,12.74Zm13.64-9.83c0.42,2.48.68,5,1,7.47l-0.55.31-9.59-10.84c1.8,0.47,4.86,1.23,7.89,2.07A1.89,1.89,0,0,1,331.68,196.68Zm-12.79-9.06,9.35,6.05-0.14.41c-2.53-.64-5.21-1-7.51-2.07-1.16-.56-1.63-2.54-2.41-3.88ZM307,186.25c3.21,0.17,6.48.06,9.59,0.7,0.86,0.18,1.25,2.61,1.85,4l-0.53.31-11-4.5Zm9.61,5.51-0.08.43L301.8,195l1.29-8.88Zm-14.51-5.49-1.28,8.82-13.76-3Zm-3.89.48L287.3,191C289.28,185.12,294.08,186.79,298.22,186.75Zm-10.91,1.61c-1.33,3.76-4.24,4.18-7.23,4.48Zm-12.12,8.19a2,2,0,0,1,1-1c2.12-.71,4.27-1.31,5.86-1.79l-8.74,9.71L272.8,203C273.59,200.88,274.35,198.7,275.19,196.55Zm-3,3.87c-0.57,2.33-.19,5.29-4.11,6Zm-2.09,6.66-4.39,8.38-0.57-.18C266.64,212.63,265,208.29,270.1,207.08Zm0.28,1.5,0.54,0.08v13.47l-6.75-1.75Z" transform="translate(-2.73 0.27)"/><path class="cls-6" d="M215.2,292.87S255.83,271.65,329,257.3s108.2-7.91,108.2-7.91v-29.7S382.36,241,328,221.55s-106.7,47-106.7,47Z" transform="translate(-2.73 0.27)"/><path class="cls-7" d="M375.13,220.38l0.94-10.81s-0.41-77.32,0-88.08a145.76,145.76,0,0,1,2.45-22.59c0.92-4.87,2.65-16,4.83-16s5.28,15.14,5.28,15.14,2.87,15,2.93,23.72,0,47.3.42,53.12,6.33,33.52,6.62,38.2,0.59,10.11.59,10.11l-5.53-.73,1.84,7.35-1.51-.05-1.84-7.3-6,.58,0.41,6.4-0.92.3-0.5-6.84-0.5,9.31h-0.84l-0.17-9.31-7.29-.44-1.19,7.35h-1.86l2-7.64Z" transform="translate(-2.73 0.27)"/></svg>