<?xml version="1.0" encoding="UTF-8" standalone="no"?>
<!-- Created with Inkscape (http://www.inkscape.org/) -->

<svg
   width="155.97728mm"
   height="156.1479mm"
   viewBox="0 0 155.97728 156.1479"
   version="1.1"
   id="svg8"
   inkscape:version="1.2.2 (b0a8486541, 2022-12-01)"
   sodipodi:docname="simoc-logo.svg"
   xmlns:inkscape="http://www.inkscape.org/namespaces/inkscape"
   xmlns:sodipodi="http://sodipodi.sourceforge.net/DTD/sodipodi-0.dtd"
   xmlns="http://www.w3.org/2000/svg"
   xmlns:svg="http://www.w3.org/2000/svg"
   xmlns:rdf="http://www.w3.org/1999/02/22-rdf-syntax-ns#"
   xmlns:cc="http://creativecommons.org/ns#"
   xmlns:dc="http://purl.org/dc/elements/1.1/">
  <defs
     id="defs2">
    <clipPath
       id="clipPath850"
       clipPathUnits="userSpaceOnUse">
      <path
         inkscape:connector-curvature="0"
         id="path848"
         d="M 0,600 H 600 V 0 H 0 Z" />
    </clipPath>
    <clipPath
       id="clipPath862"
       clipPathUnits="userSpaceOnUse">
      <path
         inkscape:connector-curvature="0"
         id="path860"
         d="M 0,600 H 600 V 0 H 0 Z" />
    </clipPath>
  </defs>
  <sodipodi:namedview
     id="base"
     pagecolor="#ffffff"
     bordercolor="#666666"
     borderopacity="1.0"
     inkscape:pageopacity="0.0"
     inkscape:pageshadow="2"
     inkscape:zoom="1.4"
     inkscape:cx="205"
     inkscape:cy="244.28571"
     inkscape:document-units="mm"
     inkscape:current-layer="g842"
     showgrid="false"
     inkscape:window-width="1920"
     inkscape:window-height="1007"
     inkscape:window-x="0"
     inkscape:window-y="0"
     inkscape:window-maximized="1"
     inkscape:showpageshadow="0"
     inkscape:pagecheckerboard="0"
     inkscape:deskcolor="#d1d1d1" />
  <metadata
     id="metadata5">
    <rdf:RDF>
      <cc:Work
         rdf:about="">
        <dc:format>image/svg+xml</dc:format>
        <dc:type
           rdf:resource="http://purl.org/dc/dcmitype/StillImage" />
      </cc:Work>
    </rdf:RDF>
  </metadata>
  <g
     inkscape:label="Layer 1"
     inkscape:groupmode="layer"
     id="layer1"
     transform="translate(-36.16017,-66.840556)">
    <g
       transform="matrix(0.35277777,0,0,-0.35277777,8.7732233,251.56777)"
       inkscape:label="SIMOC_SAM_logo-REV-202302-v6-FINAL"
       id="g842">
      <g
         id="g856">
        <g
           clip-path="url(#clipPath862)"
           id="g858">
          <g
             transform="translate(469.4988,416.3177)"
             id="g864">
            <path
               inkscape:connector-curvature="0"
               id="path866"
               style="fill:#ffffff;fill-opacity:1;fill-rule:nonzero;stroke:none"
               d="m 0,0 c 0,-14.647 -3.883,-26.52 -8.673,-26.52 -4.79,0 -8.673,11.873 -8.673,26.52 0,14.647 3.883,26.52 8.673,26.52 C -3.883,26.52 0,14.647 0,0" />
          </g>
          <g
             transform="translate(393.3542,503.1483)"
             id="g868">
            <path
               inkscape:connector-curvature="0"
               id="path870"
               style="fill:#3f92d1;fill-opacity:1;fill-rule:nonzero;stroke:none"
               d="m 0,0 c -279.196,108.838 -423.567,-244.713 -220.588,-385.091 0,0 -82.932,294.035 220.588,385.091" />
          </g>
          <g
             transform="translate(193.6671,106.6358)"
             id="g872">
            <path
               inkscape:connector-curvature="0"
               id="path874"
               style="fill:#8b3620;fill-opacity:1;fill-rule:nonzero;stroke:none"
               d="m 0,0 c 0,0 40.159,86.364 142.12,123.802 101.961,37.437 178.684,24.188 178.684,24.188 0,0 -25.583,-121.669 -130.156,-159.372 C 86.076,-49.085 0,0 0,0" />
          </g>
          <g
             transform="translate(348.0079,311.0515)"
             id="g876">
            <path
               inkscape:connector-curvature="0"
               id="path878"
               style="fill:#a6995e;fill-opacity:1;fill-rule:nonzero;stroke:none"
               d="m 0,0 c 0.179,-0.026 0.358,-0.051 0.536,-0.077 v -13.466 c -2.066,0.536 -4.246,1.101 -6.75,1.751 C -4.019,-7.627 -2.01,-3.813 0,0 m -0.28,1.503 c -1.597,-3.049 -2.992,-5.715 -4.388,-8.38 -0.188,0.059 -0.377,0.119 -0.566,0.178 1.498,2.651 -0.191,6.99 4.954,8.202 M 1.807,8.16 C 1.236,5.831 1.615,2.875 -2.301,2.142 -0.739,4.431 0.534,6.296 1.807,8.16 m 3.009,3.871 c 0.168,0.427 0.605,0.908 1.024,1.048 2.116,0.706 4.268,1.309 5.863,1.785 C 8.977,11.833 5.972,8.493 2.967,5.152 2.786,5.281 2.605,5.409 2.424,5.538 3.213,7.706 3.971,9.885 4.816,12.031 m 12.117,8.187 c -1.327,-3.76 -4.235,-4.184 -7.227,-4.484 2.273,1.411 4.547,2.821 7.227,4.484 m 10.907,1.609 c -3.593,-1.394 -7.187,-2.787 -10.915,-4.233 1.975,5.872 6.783,4.201 10.915,4.233 m 3.893,0.484 c -0.451,-3.104 -0.852,-5.864 -1.282,-8.817 -4.645,1.012 -8.872,1.932 -13.759,2.997 5.261,2.036 9.945,3.848 15.041,5.82 m 14.512,-5.489 c -0.025,-0.144 -0.051,-0.289 -0.077,-0.434 -4.799,-0.93 -9.598,-1.86 -14.741,-2.856 0.433,2.984 0.833,5.745 1.288,8.877 4.763,-1.966 9.147,-3.776 13.53,-5.587 m -9.609,5.514 c 3.208,-0.173 6.476,-0.059 9.587,-0.704 0.859,-0.178 1.249,-2.615 1.854,-4.015 -0.177,-0.102 -0.355,-0.205 -0.532,-0.307 -3.654,1.5 -7.308,2.999 -10.961,4.499 0.017,0.175 0.034,0.351 0.052,0.527 M 48.513,20.96 c 3.116,-2.018 6.233,-4.037 9.35,-6.055 -0.048,-0.137 -0.096,-0.275 -0.144,-0.413 -2.526,0.644 -5.208,0.963 -7.514,2.068 -1.158,0.556 -1.631,2.54 -2.415,3.878 0.241,0.174 0.482,0.348 0.723,0.522 M 61.304,11.904 C 61.722,9.427 61.989,6.925 62.306,4.431 L 61.756,4.12 c -3.418,3.864 -6.836,7.728 -9.59,10.841 1.802,-0.467 4.857,-1.228 7.889,-2.072 0.486,-0.136 1.182,-0.589 1.249,-0.985 M 47.668,2.076 c 0.437,4.467 0.841,8.604 1.316,13.463 4.187,-4.688 7.947,-8.896 11.384,-12.743 -3.43,-0.195 -7.871,-0.447 -12.7,-0.72 M 46.775,2.39 C 41.741,5.9 37.094,9.141 31.995,12.697 37.6,13.779 42.661,14.756 48.045,15.795 47.624,11.354 47.223,7.125 46.775,2.39 M 30.39,-1.785 C 30.665,2.81 30.926,7.186 31.219,12.1 36.215,8.624 40.876,5.381 46.023,1.801 40.531,0.541 35.609,-0.588 30.39,-1.785 m -0.955,0.004 C 24.54,-0.527 19.867,0.67 14.75,1.98 20.008,5.389 24.898,8.557 30.298,12.057 29.995,7.194 29.725,2.866 29.435,-1.781 m -15.255,4.5 c 0.453,4.639 0.854,8.748 1.277,13.081 4.679,-1.009 9.108,-1.964 14.194,-3.062 C 24.314,9.282 19.486,6.155 14.18,2.719 M 13.202,2.297 C 9.566,2.582 6.058,2.858 3.382,3.068 6.714,6.804 10.273,10.794 13.833,14.785 14.015,14.69 14.198,14.595 14.381,14.5 13.998,10.539 13.615,6.579 13.202,2.297 M 2.348,-12.358 c -0.182,0.038 -0.364,0.077 -0.546,0.115 V 2.236 C 5.132,1.981 8.682,1.709 12.723,1.398 9.08,-3.432 5.714,-7.895 2.348,-12.358 M 62.883,10.51 c 2.148,-3.081 4.12,-5.908 6.204,-8.897 -6.039,0.823 -6.893,2.034 -6.204,8.897 m 7.12,-11.413 c 0.368,-2.962 0.632,-5.936 0.931,-8.907 -0.184,-0.033 -0.367,-0.066 -0.55,-0.099 -2.033,3.689 -4.067,7.379 -6.383,11.58 2.101,-0.501 3.632,-0.786 5.096,-1.268 0.412,-0.136 0.847,-0.825 0.906,-1.306 m 2.112,-11.018 c -0.263,2.451 -0.515,4.805 -0.82,7.641 2.629,-4.844 2.784,-6.312 0.82,-7.641 M -6.079,-18.61 c -0.006,0.083 -0.006,0.167 -0.015,0.249 0.016,-0.076 0.032,-0.153 0.048,-0.23 0.29,0.171 0.582,0.339 0.874,0.507 -0.355,1.731 -0.716,3.487 -1.092,5.32 2.572,-0.668 4.698,-1.22 7.139,-1.855 -0.025,-0.08 -0.05,-0.157 -0.075,-0.237 0.572,0.288 1.146,0.573 1.725,0.851 -0.082,0.014 -0.161,0.028 -0.243,0.042 3.766,4.985 7.312,9.682 11.115,14.716 0.866,-3.235 1.7,-6.351 2.534,-9.467 0.298,0.091 0.598,0.176 0.897,0.264 -0.851,3.167 -1.699,6.32 -2.582,9.603 5.133,-1.32 9.77,-2.512 14.81,-3.809 -0.916,-1.223 -1.819,-2.428 -2.718,-3.63 0.434,0.07 0.868,0.144 1.305,0.205 0.722,0.964 1.446,1.93 2.183,2.915 0.575,-0.837 1.141,-1.661 1.708,-2.485 0.354,0.029 0.707,0.063 1.062,0.087 -0.65,0.946 -1.301,1.893 -1.966,2.862 5.274,1.217 10.31,2.379 15.797,3.645 -0.812,-2.291 -1.606,-4.53 -2.399,-6.769 0.317,-0.036 0.633,-0.065 0.95,-0.106 0.765,2.148 1.535,4.311 2.327,6.533 2.151,-2.836 4.226,-5.573 6.312,-8.322 0.491,-0.14 0.983,-0.272 1.475,-0.425 -2.335,3.081 -4.641,6.123 -7.051,9.302 4.976,0.283 9.496,0.539 14.412,0.818 -0.689,-4.065 -1.339,-7.9 -2.022,-11.926 0.304,-0.101 0.607,-0.196 0.91,-0.294 0.615,3.678 1.231,7.364 1.9,11.359 2.749,-4.972 5.201,-9.406 7.774,-14.06 -0.026,-0.005 -0.051,-0.009 -0.077,-0.014 0.674,-0.164 1.348,-0.326 2.02,-0.479 0.222,0.41 0.506,0.759 0.881,1.009 -0.022,-0.403 -0.042,-0.79 -0.064,-1.188 0.308,-0.068 0.616,-0.136 0.924,-0.202 -0.018,6.53 -2.94,12.2 -6.127,17.888 -4.125,7.36 -10.317,12.285 -17.458,16.362 -2.294,1.309 -4.441,2.76 -7.167,2.996 -4.297,0.371 -8.409,2.449 -12.856,1.436 C 25.443,23.574 19.741,23.075 14.412,19.97 7.326,15.842 1.502,10.855 -2.379,3.649 -3.221,2.086 -4.205,0.547 -4.732,-1.126 c -1.883,-5.976 -2.742,-12.086 -2.727,-18.312 0.458,0.278 0.916,0.555 1.38,0.828" />
          </g>
          <g
             transform="translate(289.5071,213.7234)"
             id="g880">
            <path
               inkscape:connector-curvature="0"
               id="path882"
               style="fill:#b57846;fill-opacity:1;fill-rule:nonzero;stroke:none"
               d="m 0,0 c 0,0 41.547,26.286 114.92,39.313 72.633,12.896 110.875,6.578 110.875,6.578 0,0 3.608,19.904 4.215,30.403 0.607,10.499 -0.058,15.321 -0.058,15.321 0,0 -59.472,-22.686 -113.873,-3.257 C 61.678,107.786 9.378,41.375 9.378,41.375 Z" />
          </g>
          <g
             transform="translate(452.7641,303.2533)"
             id="g884">
            <path
               inkscape:connector-curvature="0"
               id="path886"
               style="fill:#a6995e;fill-opacity:1;fill-rule:nonzero;stroke:none"
               d="m 0,0 0.943,10.805 c 0,0 -0.41,77.324 0,88.079 0.41,10.755 1.535,17.72 2.452,22.593 0.918,4.872 2.653,15.958 4.833,15.958 2.18,0 5.282,-15.135 5.282,-15.135 0,0 2.866,-14.979 2.935,-23.722 0.069,-8.742 0,-47.297 0.419,-53.119 0.419,-5.821 6.333,-33.521 6.624,-38.202 0.29,-4.681 0.587,-10.114 0.587,-10.114 l -5.534,0.727 1.845,-7.349 -1.51,0.054 -1.844,7.295 -6.037,-0.582 0.412,-6.402 -0.92,-0.296 -0.498,6.844 -0.503,-9.314 H 8.648 L 8.48,-2.566 1.186,-2.13 0,-9.479 h -1.855 l 2.034,7.641 z" />
          </g>
          <g
             transform="translate(246.1894,101.9268)"
             id="g888">
            <path
               inkscape:connector-curvature="0"
               id="path890"
               style="fill:#ffffff;fill-opacity:1;fill-rule:nonzero;stroke:none"
               d="M 0,0 -4.071,0.858 7.315,18.079 c 1.2,1.808 2.799,2.256 5.022,1.786 2.191,-0.462 3.473,-1.518 3.809,-3.649 l 3.173,-20.293 -4.101,0.865 -2.83,18.357 c -0.082,0.542 -0.381,0.833 -0.882,0.938 -0.501,0.106 -0.892,-0.041 -1.217,-0.495 z" />
          </g>
          <g
             transform="translate(284.9316,117.292)"
             id="g892">
            <path
               inkscape:connector-curvature="0"
               id="path894"
               style="fill:#ffffff;fill-opacity:1;fill-rule:nonzero;stroke:none"
               d="m 0,0 -0.476,-3.745 -6.253,0.795 -2.248,-17.682 -3.777,0.48 2.247,17.68 -6.254,0.795 0.477,3.746 z" />
          </g>
          <g
             transform="translate(299.7548,99.0566)"
             id="g896">
            <path
               inkscape:connector-curvature="0"
               id="path898"
               style="fill:#ffffff;fill-opacity:1;fill-rule:nonzero;stroke:none"
               d="m 0,0 c 0,-0.255 0.16,-0.352 0.417,-0.35 l 7.359,0.034 c 2.273,0.009 3.324,1.07 3.316,2.83 C 11.083,4.338 9.959,5.293 7.751,5.283 L -0.023,5.248 Z m -0.039,8.384 7.68,0.034 c 2.24,0.011 3.324,0.848 3.316,2.607 -0.008,1.696 -1.005,2.811 -3.309,2.801 L 0.354,13.793 C 0.098,13.792 -0.062,13.664 -0.061,13.407 Z m 7.543,9.153 C 12.592,17.561 14.746,15.17 14.762,11.65 14.773,9.154 13.692,7.646 11.68,6.837 13.731,6.014 14.891,4.42 14.902,1.924 14.918,-1.532 12.785,-4.038 7.697,-4.061 l -9.599,-0.043 c -1.217,-0.005 -1.795,0.568 -1.801,1.752 l -0.08,18.079 c -0.006,1.183 0.568,1.762 1.784,1.767 z" />
          </g>
          <g
             transform="translate(322.1035,117.3936)"
             id="g900">
            <path
               inkscape:connector-curvature="0"
               id="path902"
               style="fill:#ffffff;fill-opacity:1;fill-rule:nonzero;stroke:none"
               d="m 0,0 1.763,-21.528 -3.764,-0.309 -1.764,21.528 z" />
          </g>
          <g
             transform="translate(336.1152,115.377)"
             id="g904">
            <path
               inkscape:connector-curvature="0"
               id="path906"
               style="fill:#ffffff;fill-opacity:1;fill-rule:nonzero;stroke:none"
               d="m 0,0 c -4.099,-0.709 -5.536,-3.1 -4.692,-7.987 0.839,-4.855 2.954,-6.568 7.084,-5.855 l 2.9,0.502 c 4.1,0.708 5.517,3.031 4.672,7.918 C 9.124,-0.566 6.999,1.209 2.9,0.501 Z m 2.257,4.221 c 6.18,1.068 10.226,-1.869 11.464,-9.026 1.231,-7.125 -1.575,-11.181 -7.784,-12.256 l -2.902,-0.501 c -6.212,-1.073 -10.216,1.806 -11.447,8.932 -1.236,7.157 1.589,11.282 7.768,12.35 z" />
          </g>
          <g
             transform="translate(367.1738,127.2012)"
             id="g908">
            <path
               inkscape:connector-curvature="0"
               id="path910"
               style="fill:#ffffff;fill-opacity:1;fill-rule:nonzero;stroke:none"
               d="m 0,0 1.129,-3.604 -10.567,-3.31 c -1.864,-0.584 -2.372,-1.85 -1.922,-3.285 0.392,-1.253 1.406,-2.243 3.819,-1.487 l 4.825,1.512 c 5.621,1.76 7.91,-0.943 8.838,-3.906 1.091,-3.482 0.031,-6.631 -4.672,-8.105 l -11.484,-3.598 -1.129,3.604 11.605,3.636 c 1.955,0.613 2.506,1.959 2.037,3.455 -0.42,1.345 -1.505,2.346 -4.041,1.553 l -4.794,-1.504 c -5.498,-1.721 -7.748,0.962 -8.647,3.832 -1.072,3.421 -0.023,6.5 4.558,7.935 z" />
          </g>
          <g
             transform="translate(381.6728,133.5215)"
             id="g912">
            <path
               inkscape:connector-curvature="0"
               id="path914"
               style="fill:#ffffff;fill-opacity:1;fill-rule:nonzero;stroke:none"
               d="m 0,0 c 4.415,2.038 7.563,0.179 9.012,-2.958 1.369,-2.963 1.13,-6.95 -3.46,-9.067 l -6.1,-2.818 c -0.32,-0.147 -0.427,-0.373 -0.266,-0.721 l 3.272,-7.088 -3.428,-1.582 -3.581,7.755 c -1.019,2.208 -0.505,3.538 1.645,4.53 l 7.058,3.259 c 1.948,0.899 2.114,2.596 1.484,3.961 -0.657,1.424 -2.05,2.226 -3.909,1.368 l -10.196,-4.707 -1.582,3.427 z" />
          </g>
          <g
             transform="translate(393.5478,139.8008)"
             id="g916">
            <path
               inkscape:connector-curvature="0"
               id="path918"
               style="fill:#ffffff;fill-opacity:1;fill-rule:nonzero;stroke:none"
               d="m 0,0 4.748,-7.408 9.293,5.955 -4.746,7.408 3.205,2.054 11.652,-18.183 -3.207,-2.055 -4.867,7.597 -9.294,-5.956 4.868,-7.596 -3.179,-2.037 -11.651,18.184 z" />
          </g>
          <g
             transform="translate(422.414,161.5703)"
             id="g920">
            <path
               inkscape:connector-curvature="0"
               id="path922"
               style="fill:#ffffff;fill-opacity:1;fill-rule:nonzero;stroke:none"
               d="M 0,0 2.46,-2.865 -5.75,-9.91 c -1.724,-1.481 -1.789,-2.928 -0.706,-4.192 1.146,-1.336 2.518,-1.212 4.17,0.206 l 8.062,6.919 2.232,-2.599 -8.137,-6.983 c -1.651,-1.418 -1.938,-2.802 -0.792,-4.138 1.104,-1.287 2.572,-1.377 4.248,0.061 l 8.307,7.129 2.46,-2.866 -8.307,-7.128 c -3.886,-3.335 -7.112,-2.772 -9.3,-0.222 -1.605,1.871 -1.84,3.864 -0.875,5.787 -2.072,-0.681 -3.933,-0.085 -5.475,1.711 -2.251,2.623 -2.208,5.867 1.653,9.181 z" />
          </g>
          <g
             transform="translate(432.9579,173.0059)"
             id="g924">
            <path
               inkscape:connector-curvature="0"
               id="path926"
               style="fill:#ffffff;fill-opacity:1;fill-rule:nonzero;stroke:none"
               d="m 0,0 c 3.242,3.627 6.871,3.174 9.448,0.871 2.005,-1.791 3.3,-4.665 1.794,-7.742 l 9.792,-2.01 -2.794,-3.127 -9.511,1.891 -3.754,-4.199 c -0.235,-0.263 -0.243,-0.512 0.043,-0.769 l 5.824,-5.203 -2.518,-2.816 -6.371,5.694 c -1.814,1.621 -1.871,3.045 -0.293,4.811 l 5.608,6.276 C 8.697,-4.725 8.176,-3.1 7.029,-2.075 5.885,-1.053 4.287,-0.869 2.902,-2.421 l -7.89,-8.829 -2.817,2.516 z" />
          </g>
          <g
             transform="translate(449.7607,194.9199)"
             id="g928">
            <path
               inkscape:connector-curvature="0"
               id="path930"
               style="fill:#ffffff;fill-opacity:1;fill-rule:nonzero;stroke:none"
               d="m 0,0 3.057,-2.216 -6.35,-8.757 c -1.334,-1.84 -1.061,-3.261 0.286,-4.238 1.425,-1.035 2.73,-0.598 4.007,1.164 l 6.237,8.602 2.772,-2.01 -6.294,-8.679 c -1.277,-1.762 -1.235,-3.176 0.19,-4.21 1.372,-0.994 2.822,-0.742 4.118,1.047 l 6.424,8.859 3.057,-2.216 -6.424,-8.86 c -3.006,-4.144 -6.273,-4.345 -8.994,-2.372 -1.994,1.447 -2.684,3.329 -2.193,5.425 -1.858,-1.144 -3.805,-0.996 -5.722,0.395 -2.798,2.027 -3.509,5.191 -0.521,9.31 z" />
          </g>
          <g
             transform="translate(462.4238,216.5273)"
             id="g932">
            <path
               inkscape:connector-curvature="0"
               id="path934"
               style="fill:#ffffff;fill-opacity:1;fill-rule:nonzero;stroke:none"
               d="m 0,0 c 1.981,3.656 4.979,4.687 8.468,2.797 2.812,-1.524 3.654,-3.729 2.696,-7.176 l -2.513,-8.864 c -0.407,-1.489 0.159,-2.124 1.228,-2.702 l 0.956,-0.52 c 0.31,-0.168 0.455,-0.1 0.592,0.153 l 7.06,13.023 3.319,-1.8 -8.203,-15.132 c -0.581,-1.069 -1.36,-1.3 -2.401,-0.737 l -2.869,1.556 c -3.094,1.677 -4.223,3.49 -3.199,7.121 l 2.502,8.978 C 8.058,-1.785 7.64,-1.012 6.739,-0.524 5.474,0.162 4.187,-0.196 3.364,-1.715 l -5.947,-10.97 -3.318,1.799 z" />
          </g>
          <g
             transform="translate(94.7988,339.9385)"
             id="g936">
            <path
               inkscape:connector-curvature="0"
               id="path938"
               style="fill:#ffffff;fill-opacity:1;fill-rule:nonzero;stroke:none"
               d="m 0,0 3.706,-0.716 -2.099,-10.87 c -0.37,-1.917 0.503,-2.966 1.98,-3.251 1.287,-0.248 2.641,0.175 3.12,2.656 l 0.959,4.965 c 1.116,5.78 4.581,6.513 7.629,5.924 3.582,-0.691 5.851,-3.118 4.915,-7.956 l -2.28,-11.813 -3.708,0.716 2.306,11.939 c 0.388,2.01 -0.535,3.134 -2.075,3.431 -1.382,0.267 -2.779,-0.213 -3.281,-2.821 l -0.954,-4.933 c -1.092,-5.654 -4.52,-6.361 -7.472,-5.791 -3.518,0.68 -5.731,3.063 -4.821,7.776 z" />
          </g>
          <g
             transform="translate(97.5058,350.3027)"
             id="g940">
            <path
               inkscape:connector-curvature="0"
               id="path942"
               style="fill:#ffffff;fill-opacity:1;fill-rule:nonzero;stroke:none"
               d="M 0,0 20.884,-5.527 19.917,-9.178 -0.966,-3.65 Z" />
          </g>
          <g
             transform="translate(120.4531,352.957)"
             id="g944">
            <path
               inkscape:connector-curvature="0"
               id="path946"
               style="fill:#ffffff;fill-opacity:1;fill-rule:nonzero;stroke:none"
               d="m 0,0 -1.328,-3.535 -16.18,6.078 c -2.637,0.991 -3.852,3.123 -2.715,6.149 1.013,2.697 2.936,3.445 5.524,3.328 L 0.06,12.08 c 0.588,0.019 1.064,0.284 1.267,0.823 0.225,0.6 -0.056,1.218 -0.746,1.478 l -11.953,4.491 c -2.636,0.991 -3.854,3.122 -2.727,6.118 1.013,2.697 2.936,3.446 5.546,3.387 l 19.191,-0.065 -1.431,-3.804 -18.56,0.101 c -0.587,-0.018 -1.093,-0.272 -1.296,-0.811 -0.226,-0.6 0.066,-1.188 0.785,-1.458 L 2.061,17.859 C 4.727,16.857 5.921,14.665 4.806,11.699 3.804,9.033 1.87,8.255 -0.729,8.343 L -15.488,8.281 c -0.589,-0.018 -1.094,-0.273 -1.285,-0.782 -0.237,-0.63 0.055,-1.217 0.774,-1.487 z" />
          </g>
          <g
             transform="translate(120.6142,398.5547)"
             id="g948">
            <path
               inkscape:connector-curvature="0"
               id="path950"
               style="fill:#ffffff;fill-opacity:1;fill-rule:nonzero;stroke:none"
               d="m 0,0 c -1.97,-3.665 -0.974,-6.271 3.396,-8.621 4.341,-2.334 6.995,-1.725 8.979,1.968 l 1.395,2.592 c 1.971,3.665 1.015,6.214 -3.354,8.563 C 6.074,6.836 3.365,6.258 1.396,2.594 Z m -1.932,4.382 c 2.971,5.525 7.781,6.9 14.18,3.46 6.369,-3.426 7.834,-8.137 4.849,-13.691 l -1.395,-2.593 c -2.986,-5.554 -7.723,-6.93 -14.095,-3.505 -6.399,3.44 -7.903,8.211 -4.932,13.735 z" />
          </g>
          <g
             transform="translate(136.4208,431.0166)"
             id="g952">
            <path
               inkscape:connector-curvature="0"
               id="path954"
               style="fill:#ffffff;fill-opacity:1;fill-rule:nonzero;stroke:none"
               d="m 0,0 3.118,-2.132 -4.717,-6.894 c -2.348,-3.435 -1.662,-6.115 2.434,-8.915 4.066,-2.783 6.796,-2.478 9.163,0.982 l 4.716,6.895 3.117,-2.132 -4.716,-6.895 c -3.559,-5.204 -8.444,-6.051 -14.413,-1.968 -5.996,4.102 -6.96,8.988 -3.418,14.164 z" />
          </g>
          <g
             transform="translate(144.8544,447.501)"
             id="g956">
            <path
               inkscape:connector-curvature="0"
               id="path958"
               style="fill:#ffffff;fill-opacity:1;fill-rule:nonzero;stroke:none"
               d="M 0,0 23.395,-20.055 21.876,-21.828 -1.52,-1.773 Z" />
          </g>
          <g
             transform="translate(171.0927,468.4736)"
             id="g960">
            <path
               inkscape:connector-curvature="0"
               id="path962"
               style="fill:#ffffff;fill-opacity:1;fill-rule:nonzero;stroke:none"
               d="m 0,0 2.574,-2.762 -8.099,-7.546 c -1.428,-1.331 -1.34,-2.692 -0.316,-3.793 0.895,-0.96 2.237,-1.415 4.087,0.308 l 3.697,3.447 c 4.308,4.013 7.54,2.564 9.655,0.293 2.487,-2.669 2.891,-5.966 -0.713,-9.325 l -8.803,-8.201 -2.574,2.763 8.896,8.288 c 1.498,1.395 1.413,2.847 0.344,3.995 -0.958,1.029 -2.37,1.465 -4.313,-0.346 l -3.674,-3.425 c -4.214,-3.925 -7.401,-2.476 -9.45,-0.277 -2.444,2.622 -2.829,5.851 0.683,9.122 z" />
          </g>
          <g
             transform="translate(191.4814,457.3818)"
             id="g964">
            <path
               inkscape:connector-curvature="0"
               id="path966"
               style="fill:#ffffff;fill-opacity:1;fill-rule:nonzero;stroke:none"
               d="m 0,0 -3.339,-2.482 -5.37,19.935 c -0.561,2.096 0.162,3.59 1.986,4.945 1.797,1.337 3.437,1.599 5.256,0.44 L 15.846,11.781 12.481,9.279 -3.151,19.311 c -0.461,0.297 -0.876,0.266 -1.286,-0.039 -0.412,-0.305 -0.561,-0.696 -0.436,-1.24 z" />
          </g>
          <g
             transform="translate(212.5458,472.5)"
             id="g968">
            <path
               inkscape:connector-curvature="0"
               id="path970"
               style="fill:#ffffff;fill-opacity:1;fill-rule:nonzero;stroke:none"
               d="m 0,0 -3.331,-1.777 -8.134,15.24 c -1.324,2.483 -0.831,4.886 2.02,6.408 2.54,1.355 4.476,0.649 6.341,-1.148 L 8.016,9.029 C 8.47,8.654 9.002,8.54 9.511,8.811 c 0.563,0.301 0.76,0.951 0.416,1.599 L 3.916,21.671 c -1.324,2.483 -0.831,4.887 1.991,6.393 2.54,1.355 4.476,0.649 6.399,-1.118 L 26.669,14.232 23.084,12.32 9.218,24.646 C 8.766,25.02 8.217,25.163 7.709,24.893 7.146,24.591 6.976,23.956 7.336,23.278 L 13.331,12.047 C 14.672,9.535 14.121,7.102 11.327,5.611 8.815,4.271 6.851,4.962 4.957,6.743 l -11.12,9.694 c -0.453,0.375 -1,0.518 -1.481,0.262 -0.592,-0.317 -0.761,-0.951 -0.401,-1.629 z" />
          </g>
          <g
             transform="translate(145.767,205.4495)"
             id="g972">
            <path
               inkscape:connector-curvature="0"
               id="path974"
               style="fill:#ffffff;fill-opacity:1;fill-rule:evenodd;stroke:none"
               d="m 0,0 c -2.432,6.472 -4.164,13.376 -3.51,20.259 0.128,1.346 0.629,2.988 1.965,3.2 0.638,0.101 1.268,-0.182 1.849,-0.465 C 8.525,18.989 16.006,13.471 22.262,6.8 23.273,5.722 24.27,4.585 24.828,3.216 c 0.974,-2.395 0.465,-5.105 -0.057,-7.637 -1.73,-8.383 -2.682,-17.538 -5.414,-25.631 -3.949,0.27 -9.216,10.298 -11.229,13.545 C 5.646,-12.504 0,-4.836 0,0" />
          </g>
          <g
             transform="translate(160.3816,272.6349)"
             id="g976">
            <path
               inkscape:connector-curvature="0"
               id="path978"
               style="fill:#ffffff;fill-opacity:1;fill-rule:evenodd;stroke:none"
               d="m 0,0 c -1.831,13.721 -3.662,27.442 -5.492,41.164 -0.182,1.359 -0.288,2.946 0.711,3.886 1.791,1.686 4.54,-0.491 5.977,-2.488 4.753,-6.603 9.507,-13.205 14.26,-19.808 2.221,-3.085 4.472,-6.226 5.731,-9.813 C 23.524,6.287 22.146,-1.22 19.023,-7.543 15.9,-13.866 11.172,-19.231 6.499,-24.513 1.08,-19.899 0.875,-6.558 0,0" />
          </g>
          <g
             transform="translate(197.8451,366.5757)"
             id="g980">
            <path
               inkscape:connector-curvature="0"
               id="path982"
               style="fill:#ffffff;fill-opacity:1;fill-rule:evenodd;stroke:none"
               d="m 0,0 c 1.51,6.5 3.869,13.069 8.577,17.799 0.987,0.992 2.269,1.952 3.65,1.721 2.155,-0.362 4.777,-3.118 4.912,-5.299 0.213,-3.444 -1.575,-6.889 -1.362,-10.333 0.237,-3.813 0.441,-7.808 -1.152,-11.281 -1.783,-3.887 -5.506,-6.461 -9.06,-8.841 -1.89,-1.266 -4.126,-2.817 -6.438,-3.134 -3.691,-0.507 -3.292,0.265 -2.641,3.296 C -2.364,-10.723 -1.239,-5.332 0,0" />
          </g>
          <g
             transform="translate(432.079,478.2269)"
             id="g984">
            <path
               inkscape:connector-curvature="0"
               id="path986"
               style="fill:#3ab194;fill-opacity:1;fill-rule:evenodd;stroke:none"
               d="m 0,0 c -2.43,-1.257 -7.711,-3.344 -11.753,-4.746 -10.907,-3.832 -15.774,-6.272 -22.922,-11.624 -7.133,-5.33 -11.267,-10.053 -16.48,-19.322 -1.736,-3.021 -4.088,-6.841 -5.309,-8.499 -1.225,-1.657 -2.234,-3.056 -2.251,-3.118 -0.226,-0.722 -12.182,-8.28 -21.374,-13.757 -10.213,-6.184 -11.789,-7.014 -11.911,-5.714 -0.164,2.134 4.061,11.32 8.134,17.373 5.139,7.692 7.771,12.982 11.249,22.514 3.606,9.853 4.254,12.982 2.58,13.672 -3.911,1.669 -19.812,-17.758 -22.713,-28.095 -1.204,-4.088 -2.486,-16.289 -2.21,-20.983 0.085,-1.633 -0.139,-4.197 -0.562,-5.79 -0.706,-2.688 -1.145,-2.985 -11.009,-9.516 -5.708,-3.655 -14.801,-10.187 -20.24,-14.449 -7.48,-5.835 -9.661,-7.34 -9.011,-5.903 0.439,1.069 1.905,4.583 3.203,7.862 1.357,3.264 4.05,9.509 6.014,13.917 4.531,9.844 5.312,12.836 5.777,22.497 0.307,6.442 0.859,9.504 3.191,17.793 1.752,6.193 2.667,10.228 2.314,10.436 -0.309,0.118 -0.907,0.42 -1.259,0.627 -0.352,0.208 -2.321,-1.826 -4.392,-4.495 -13.169,-16.953 -14.629,-19.761 -17.288,-29.975 -1.943,-7.687 -2.208,-12.184 -1.204,-25.67 0.58,-7.292 0.575,-10.61 -0.124,-13.728 -0.301,-1.348 -0.599,-2.696 -0.895,-4.044 -2.563,-2.252 -5.119,-4.519 -7.67,-6.802 -15.039,-13.336 -23.264,-21.781 -29.977,-29.753 -0.848,-1.006 -1.694,-2.015 -2.539,-3.025 0.572,2.926 1.156,5.851 1.75,8.775 1.664,7.675 1.808,9.426 1.286,13.446 -0.326,2.895 -0.155,7.26 0.388,11.316 0.844,5.87 1.367,7.405 4.252,12.994 5.811,11.321 8.28,26.208 6.496,39.446 -0.351,2.807 -0.726,3.534 -1.936,3.715 -1.337,0.225 -1.636,-0.125 -2.449,-3.155 -0.577,-2.356 -2.056,-5.011 -4.494,-8.263 -14.841,-19.889 -16.06,-22.729 -16.919,-33.076 -1.206,-14.732 0.325,-26.427 4.901,-38.585 3.749,-9.861 3.627,-10.405 -4.266,-21.622 -3.566,-5.118 -10.062,-15.508 -14.287,-23.169 -4.243,-7.708 -7.868,-14.035 -8.13,-13.987 -0.263,0.046 -0.458,1.787 -0.409,3.843 0.067,2.197 -0.858,7.222 -2.186,12.506 -2.693,10.34 -2.699,15.093 -0.189,23.724 1.268,4.322 1.792,7.272 2.036,12.641 0.437,9.026 -0.141,12.918 -3.444,22.466 -3.09,9.263 -4.014,14.368 -3.29,18.183 0.287,1.514 0.42,3.3 0.346,4.004 -0.264,1.899 -2.592,2.248 -3.29,0.459 -0.316,-0.904 -1.91,-4.805 -3.421,-8.811 -8.024,-20.924 -10.301,-30.771 -10.07,-40.627 0.352,-14.375 3.28,-26.001 9.714,-39.208 2.558,-5.102 5.29,-11.823 6.161,-14.897 0.866,-3.07 1.76,-5.989 2.043,-6.461 0.342,-0.553 0.01,-1.774 -0.668,-3.153 -0.667,-1.237 -2.36,-5.358 -3.669,-9.266 -1.373,-3.819 -4.114,-11.33 -6.139,-16.704 -1.968,-5.369 -4.464,-12.451 -5.414,-15.856 -2.604,-8.541 -2.356,-8.159 -3.621,-6.891 -0.562,0.625 -2.397,4.635 -4.052,9.01 -3.008,8.118 -4.32,14.435 -5.845,31.895 -0.413,5.288 -1.301,9.576 -2.98,14.681 -4.557,13.638 -17.27,38.136 -20.042,37.612 -2.022,-0.425 -2.207,-1.843 -0.72,-8.367 2.694,-11.852 3.539,-17.837 3.975,-27.613 0.565,-13.138 1.601,-18.044 6.558,-31.459 4.618,-12.355 7.728,-17.322 14.405,-23.788 2.163,-1.948 4.982,-4.093 6.417,-4.671 2.927,-1.304 2.899,-1.504 1.159,-8.399 -0.663,-2.659 -1.845,-9.738 -2.64,-15.665 -0.744,-5.984 -1.875,-14.431 -2.603,-18.746 -0.42,-2.6 -0.83,-5.2 -1.231,-7.8 -0.814,1.867 -1.626,3.74 -2.434,5.617 -1.28,3.137 -3.423,8.934 -4.651,12.88 -3.392,10.82 -5.544,15.272 -9.942,19.969 -16.481,17.817 -20.032,21.619 -21.191,20.98 -1.482,-0.851 -1.392,-2.857 0.494,-10.175 2.911,-10.874 4.048,-14.17 7.702,-22.139 5.057,-11.019 10.289,-16.885 21.794,-24.481 1.907,-1.233 3.866,-3.433 5.302,-5.797 0.782,-1.264 1.564,-2.526 2.348,-3.784 -0.207,-7.32 -0.342,-14.626 -0.406,-21.916 -0.108,-15.621 0.27,-23.085 1.127,-26.724 1.749,-0.874 3.498,-1.749 5.247,-2.624 0.13,1.497 -0.06,11.876 -0.159,24.21 -0.101,7.938 -0.117,15.899 -0.049,23.88 0.962,0.864 1.925,1.727 2.888,2.587 4.071,3.471 7.35,5.202 16.492,8.456 9.817,3.52 12.554,4.942 16.063,8.581 3.106,3.196 8.162,10.21 11.235,15.593 3.278,5.632 1.716,7.364 -3.831,4.317 -1.653,-0.925 -5.327,-2.42 -8.14,-3.327 -2.818,-0.908 -6.695,-2.345 -8.542,-3.144 -5.228,-2.271 -15.796,-12.368 -21.339,-20.537 -4.009,-5.851 -4.658,-6.583 -4.315,-4.541 0.209,1.292 1.075,8.525 2.053,16.025 1.988,16.18 4.193,27.478 5.128,29.123 1.228,2.106 7.724,6.145 12.771,7.937 2.69,1.018 8.404,2.308 12.759,2.98 13.58,1.933 20.998,5.968 31.973,16.523 7.752,7.591 11.25,11.449 11.134,12.801 -0.161,2.083 -2.652,2.184 -6.267,0.164 -5.392,-2.98 -10.518,-4.622 -19.592,-6.024 -9.191,-1.474 -15.465,-3.51 -22.96,-7.657 -5.375,-2.985 -8.986,-6.146 -13.745,-12.139 -1.729,-2.168 -3.28,-3.738 -3.325,-3.384 -0.11,0.36 1.859,6.639 4.393,13.939 2.526,7.32 5.961,16.937 7.451,21.349 1.553,4.482 2.93,8.135 3.002,8.195 0.066,-0.011 2.362,0.966 5.013,2.158 5.564,2.404 9.601,2.999 18.827,3.016 10.279,0.05 26.53,1.37 30.211,2.426 4.017,1.198 10.351,4.708 21.362,11.543 9.365,5.754 10.489,6.755 9.895,8.722 -0.575,1.625 -1.772,1.733 -10.644,0.982 -3.381,-0.284 -10.555,-0.456 -15.911,-0.383 -14.557,0.184 -24.841,-1.91 -37.202,-7.76 -3.239,-1.512 -7.733,-4.084 -9.979,-5.664 -2.257,-1.647 -4.926,-3.446 -5.796,-4.075 -0.575,-0.373 -1.15,-0.747 -1.725,-1.121 0.43,0.869 0.861,1.737 1.294,2.604 7.027,14.1 18.039,33.248 21.339,37.971 3.933,5.602 4.331,5.935 8.956,7.743 2.697,1.028 7.939,2.175 11.733,2.65 7.666,0.788 11.384,0.191 25.993,-4.17 12.234,-3.677 18.176,-3.397 28.875,0.869 6.672,2.723 16.517,8.583 16.832,10.131 0.476,2.372 -1.032,3.071 -4.878,2.299 -6.394,-1.347 -9.906,-0.99 -22.325,2.702 -16.461,4.833 -19.628,5.443 -26.674,4.741 -8.568,-0.904 -11.522,-2.051 -21.101,-8.523 -4.678,-3.139 -8.478,-5.537 -8.433,-5.264 0.267,1.979 20.862,24.022 35.236,36.55 7.586,6.695 9.581,7.507 16.953,7.033 4.623,-0.266 8.272,-1.59 15.222,-5.652 2.081,-1.194 7.323,-3.325 11.669,-4.722 6.907,-2.235 8.446,-2.517 12.321,-2.388 4.701,0.162 10.004,1.937 17.151,5.539 2.367,1.157 5.209,2.426 6.245,2.777 1.301,0.406 1.965,1.058 2.055,1.942 0.121,1.269 -0.278,1.447 -7.465,3.762 -8.786,2.791 -12.43,3.16 -20.379,1.738 -5.002,-0.891 -5.577,-0.866 -14.146,1.159 -9.811,2.312 -11.396,2.314 -20.276,0.373 -3.072,-0.715 -5.749,-1.137 -5.845,-0.97 -0.298,0.523 15.239,12.504 28.109,21.007 10.77,7.198 11.684,7.534 13.675,6.895 4.584,-1.5 22.421,-4.561 25.74,-4.455 6.08,0.131 9.377,0.695 13.154,2.075 4.9,1.81 15.677,7.147 15.907,7.902 0.432,1.484 -1.719,2.634 -7.117,3.875 -9.656,2.198 -16.661,1.553 -27.976,-2.959 -2.504,-1.044 -5.818,-1.965 -7.363,-2.127 -1.547,-0.16 -4.524,-0.528 -6.58,-0.869 -2.059,-0.341 -3.796,-0.452 -3.882,-0.286 -0.087,0.166 2.249,1.796 5.156,3.558 8.894,5.283 17.103,10.419 21.804,13.754 2.41,1.783 8.638,5.411 13.836,8.122 17.16,8.928 23.691,13.904 33.979,26.178 1.517,1.776 6.21,6.686 10.523,10.892 9.034,8.802 9.205,8.945 9.234,10.289 C 5.886,2.292 4.479,2.21 0,0" />
          </g>
        </g>
      </g>
    </g>
  </g>
</svg>
