<svg id="Layer_1" data-name="Layer 1" xmlns="http://www.w3.org/2000/svg" viewBox="0 0 1239.3 442.89"><defs><style>.cls-1,.cls-2,.cls-3{isolation:isolate;}.cls-2,.cls-3{font-size:147.44px;font-family:Nasalization;}.cls-2,.cls-3,.cls-7{fill:#eee;}.cls-2{letter-spacing:28px;}.cls-3{letter-spacing:22px;}.cls-4{fill:#00cf8b;}.cls-5{fill:#0092cc;}.cls-6{fill:#963f04;}.cls-8{fill:#ccc;}.cls-9{fill:#ce5d00;}.cls-10{fill:#a5a5a5;}</style></defs><title>simoc-logo-horizontal</title><g class="cls-1"><text class="cls-2" transform="translate(561.52 305.48)">SI</text><text class="cls-3" transform="translate(765.58 305.48)">M</text><text class="cls-2" transform="translate(960.64 305.48)">OC</text></g><path class="cls-4" d="M104,411S42.57,120.82,321.69,36.49c6.16,21.2-.6,97.55-5.89,107.89-9.9,3.15-94.21,67-113.58,153.68-2,1.22-14.22,9.54-14.22,9.54C187,275.71,215.61,198,215.61,198s-32.27,31.27-47.77,123.67c-10,8.62-21.09,23.64-21.09,23.64S152.6,215,207.42,136.41c-82.12,60.34-79.17,235.06-79.17,235.06Z" transform="translate(-0.47 -0.5)"/><path class="cls-5" d="M316.19,21C37-87.84-107.38,265.71,95.6,406.08,95.6,406.08,12.67,112,316.19,21Z" transform="translate(-0.47 -0.5)"/><path class="cls-6" d="M113.77,417.77S153.93,331.41,255.89,294s178-24.16,178-24.16S409,391.45,304.42,429.16,113.77,417.77,113.77,417.77Z" transform="translate(-0.47 -0.5)"/><path class="cls-7" d="M325.69,218.33c39.45,14.09,79.11,6.76,97.92,1.67L419,205.86H383.36c-8.6-17.66-25.93-32.76-46-32.76s-37.37,15.1-46,32.76H260.85l-13.68,32.22C267.42,222.45,296.25,207.81,325.69,218.33Z" transform="translate(-0.47 -0.5)"/><path class="cls-8" d="M262,228c0-.08,0-0.17,0-0.25l0,0.23,0.87-.51-1.09-5.32L269,224l-0.08.24,1.72-.85-0.24,0,11.11-14.72,2.53,9.47,0.9-.26-2.58-9.6L297.17,212l-2.72,3.63,1.31-.21,2.18-2.91,1.71,2.49,1.06-.09-2-2.86,15.8-3.65-2.4,6.77,0.95,0.11,2.33-6.53,6.31,8.32c0.49,0.14,1,.27,1.48.42l-7.05-9.3,14.41-.82-2,11.93,0.91,0.29,1.9-11.36,7.77,14.06h-0.08l2,0.48a2.75,2.75,0,0,1,.88-1L341.89,223l0.92,0.2c0-6.53-2.94-12.2-6.13-17.89-4.12-7.36-10.32-12.28-17.46-16.36-2.29-1.31-4.44-2.76-7.17-3-4.3-.37-8.41-2.45-12.86-1.44-5.65,1.29-11.35,1.79-16.68,4.89-7.09,4.13-12.91,9.12-16.79,16.32a28.59,28.59,0,0,0-2.35,4.77,60.06,60.06,0,0,0-2.73,18.31Zm78.19-6.69-0.82-7.64C342,218.48,342.19,219.95,340.23,221.28Zm-2.11-11c0.37,3,.63,5.94.93,8.91l-0.55.1-6.38-11.58c2.1,0.5,3.63.79,5.1,1.27A1.82,1.82,0,0,1,338.12,210.26ZM331,198.85l6.2,8.9C331.16,206.92,330.31,205.71,331,198.85Zm-60.53,22.87-0.55-.11V207.12L280.84,208Zm10.85-14.65-9.82-.77,10.45-11.72,0.55,0.28Zm1-.42,1.28-13.08,14.19,3.06Zm15.25,4.5-14.68-3.76,15.55-10.08Zm1,0,0.83-13.88,14.8,10.3ZM314.89,207l-14.78-10.31,16-3.1Zm0.89,0.31,1.32-13.46,11.38,12.74Zm13.64-9.83c0.42,2.48.68,5,1,7.47l-0.55.31-9.59-10.84c1.8,0.47,4.86,1.23,7.89,2.07A1.89,1.89,0,0,1,329.42,197.45Zm-12.79-9.06,9.35,6.05-0.14.41c-2.53-.64-5.21-1-7.51-2.07-1.16-.56-1.63-2.54-2.41-3.88ZM304.75,187c3.21,0.17,6.48.06,9.59,0.7,0.86,0.18,1.25,2.61,1.85,4l-0.53.31-11-4.5Zm9.61,5.51-0.08.43-14.74,2.86,1.29-8.88ZM299.85,187l-1.28,8.82-13.76-3Zm-3.89.48L285,191.76C287,185.89,291.82,187.56,296,187.53ZM285,189.14c-1.33,3.76-4.24,4.18-7.23,4.48Zm-12.12,8.19a2,2,0,0,1,1-1c2.12-.71,4.27-1.31,5.86-1.79l-8.74,9.71-0.54-.39C271.33,201.65,272.08,199.47,272.93,197.32Zm-3,3.87c-0.57,2.33-.19,5.29-4.11,6Zm-2.09,6.66-4.39,8.38-0.57-.18C264.38,213.4,262.69,209.06,267.83,207.85Zm0.28,1.5,0.54,0.08V222.9l-6.75-1.75Z" transform="translate(-0.47 -0.5)"/><path class="cls-9" d="M212.94,293.64s40.63-21.22,113.76-35.57,108.2-7.91,108.2-7.91v-29.7s-54.8,21.29-109.2,1.86-106.7,47-106.7,47Z" transform="translate(-0.47 -0.5)"/><path class="cls-10" d="M372.87,221.16l0.94-10.81s-0.41-77.32,0-88.08a145.76,145.76,0,0,1,2.45-22.59c0.92-4.87,2.65-16,4.83-16s5.28,15.14,5.28,15.14,2.87,15,2.93,23.72,0,47.3.42,53.12,6.33,33.52,6.62,38.2,0.59,10.11.59,10.11l-5.53-.73,1.84,7.35-1.51-.05-1.84-7.3-6,.58,0.41,6.4-0.92.3-0.5-6.84-0.5,9.31h-0.84l-0.17-9.31-7.29-.44-1.19,7.35H371l2-7.64Z" transform="translate(-0.47 -0.5)"/></svg>